<svg version="1.0" xmlns="http://www.w3.org/2000/svg" width="100%" height="100%" viewBox="0 0 753 89" preserveAspectRatio="xMidYMid meet">
  <g transform="translate(0.000000,116.000000) scale(0.050000,-0.050000)" fill="#ffffff" stroke="none">
    <path d="M3284 1950 c-35 -44 -50 -48 -128 -38 l-88 12 -53 -157 c-29 -86 -56 -174 -59 -195 -3 -20 -32 49 -64 155 -60 201 -66 207 -169 171 -79 -27 -80 -11 28 -321 75 -213 90 -281 85 -374 l-6 -113 100 0 100 0 11 140 c8 101 37 204 104 369 84 209 89 231 58 254 -29 22 -27 23 15 13 85 -21 124 -75 85 -115 -37 -36 -3 -76 56 -66 37 7 120 150 121 207 0 102 -131 141 -196 58z m-270 -735 c-4 -36 -8 -11 -8 55 0 66 4 95 8 65 5 -30 5 -84 0 -120z"/>
    <path d="M1050 1913 c-223 -102 -297 -648 -106 -782 135 -94 342 -12 408 162 136 357 -48 735 -302 620z m138 -185 c7 -17 12 -76 12 -130 0 -65 8 -98 25 -98 17 -1 16 -6 -4 -19 -16 -10 -39 -57 -50 -105 -36 -148 -119 -126 -127 34 -12 228 91 456 144 318z"/>
    <path d="M4646 1919 c-205 -63 -335 -464 -224 -693 103 -213 402 -197 522 28 l45 84 -48 51 c-63 67 -80 65 -147 -19 -74 -93 -125 -92 -143 1 -17 91 21 274 69 333 50 62 69 35 40 -55 -41 -124 194 -171 247 -49 7 17 9 -10 4 -60 -5 -49 -12 -171 -15 -270 l-5 -180 222 -6 c255 -6 327 12 327 84 0 47 1 47 68 -20 201 -201 467 -8 503 365 14 148 31 167 153 167 12 0 17 -113 13 -295 l-7 -295 120 0 120 0 17 305 18 305 56 0 c103 0 119 17 119 123 l0 98 -305 -5 -305 -6 -6 -76 -7 -76 -44 66 c-55 82 -120 115 -223 116 -205 0 -323 -198 -329 -555 -1 -42 -10 -45 -130 -45 l-129 0 10 175 c5 96 13 222 17 280 9 119 -15 145 -134 145 -88 0 -115 -30 -116 -129 l-1 -81 -27 63 c-50 116 -200 170 -345 126z m125 -38 c-7 -10 27 -21 74 -25 96 -7 156 -110 128 -222 -21 -84 -173 -82 -173 3 0 51 5 55 62 47 52 -8 61 -3 55 28 -9 46 -75 62 -101 25 -13 -19 -15 -10 -7 28 7 32 3 55 -9 55 -11 0 -20 -9 -20 -19 0 -11 -13 -15 -29 -9 -96 37 -193 -457 -102 -524 55 -40 67 -36 143 40 114 114 200 57 97 -65 -89 -106 -258 -151 -351 -93 -43 27 -101 120 -85 136 7 7 3 25 -8 39 -26 31 -29 216 -4 256 15 24 18 24 19 -5 0 -38 75 -88 97 -65 7 8 1 19 -13 24 -21 7 -20 16 3 42 17 18 32 40 33 48 16 73 29 95 57 97 21 1 24 5 8 11 -13 6 -53 -4 -88 -22 -85 -42 -93 -26 -29 58 72 94 124 122 148 78 21 -37 64 -20 64 24 0 16 10 29 21 29 12 0 16 -8 10 -19z m418 -10 c-35 -27 -36 -30 -4 -30 46 -1 50 -163 5 -208 -37 -37 -38 -53 -4 -53 19 0 24 -33 18 -130 l-9 -130 153 0 152 0 0 -70 c0 -43 -10 -70 -25 -70 -17 -1 -15 -7 5 -20 37 -24 55 -21 -217 -37 l-227 -13 15 380 c16 436 9 410 104 410 68 0 70 -2 34 -29z m1491 -51 l0 -80 -88 0 c-102 0 -111 -17 -112 -213 0 -79 -9 -128 -25 -135 -15 -7 -17 -16 -5 -22 11 -6 17 -66 13 -140 l-6 -130 -65 0 c-76 0 -100 17 -72 50 28 33 40 235 15 265 -12 15 -16 99 -11 205 4 99 5 180 1 180 -4 0 -25 -9 -46 -21 -27 -14 -39 -14 -39 1 0 12 -20 16 -50 8 -44 -11 -50 -6 -50 39 0 51 2 52 175 58 96 4 218 9 270 11 l95 4 0 -80z m-813 27 c134 4 158 -14 192 -143 27 -100 13 -164 -35 -163 -45 0 -121 61 -91 72 36 14 -47 167 -90 167 -84 0 -111 -69 -112 -283 -1 -241 29 -290 120 -192 52 56 89 71 89 35 0 -11 -9 -20 -20 -20 -11 0 -20 -8 -20 -18 0 -10 19 -13 43 -7 30 8 39 4 29 -12 -8 -13 -32 -23 -53 -23 -32 0 -36 -10 -26 -60 10 -51 5 -62 -44 -80 -137 -52 -247 29 -240 178 3 68 -4 104 -22 111 -40 15 -34 192 11 297 42 96 122 186 141 156 6 -11 64 -17 128 -15z m0 -152 c36 -133 -11 -380 -75 -392 -34 -6 -36 6 -28 170 8 167 36 267 74 267 10 0 23 -20 29 -45z"/>
    <path d="M5080 1260 c0 -11 7 -20 17 -20 9 0 28 -22 43 -50 15 -27 39 -50 53 -50 33 0 33 11 5 63 -19 36 -17 38 18 19 22 -11 45 -35 51 -51 19 -51 46 -35 46 27 0 62 -107 100 -153 54 -13 -13 -20 -12 -20 4 0 13 -13 24 -30 24 -16 0 -30 -9 -30 -20z"/>
    <path d="M5672 1244 c-10 -17 66 -93 79 -80 4 4 2 28 -4 52 -12 43 -55 60 -75 28z"/>
    <path d="M6800 1923 c-57 -17 -63 -55 -91 -569 l-15 -276 128 6 128 6 6 146 c6 144 31 184 117 184 6 0 9 -65 7 -145 -3 -80 -3 -156 -2 -169 1 -17 104 -23 371 -25 l369 -1 6 175 6 175 60 -170 60 -170 115 -6 115 -6 1 106 1 106 39 -74 c143 -271 557 -134 559 185 0 117 -38 150 -171 145 -62 -2 -118 -9 -124 -15 -24 -23 -38 -190 -18 -210 25 -25 4 -50 -26 -32 -53 33 -13 318 57 398 30 36 32 34 42 -35 6 -40 17 -73 25 -73 8 1 60 1 115 1 l100 0 0 112 c0 332 -426 309 -554 -30 -26 -69 -27 -65 -21 88 l5 160 -114 6 -114 6 -6 -116 -6 -116 -43 90 c-23 50 -54 101 -69 113 -37 30 -419 54 -457 29 -19 -13 -38 -13 -54 0 -13 11 -72 17 -130 14 l-107 -6 -10 -150 c-10 -145 -12 -150 -64 -156 l-54 -6 -6 156 -6 156 -60 3 c-33 2 -82 -3 -110 -10z m510 -218 c-17 -248 -18 -253 -69 -221 -21 13 -46 17 -55 8 -9 -10 -5 -21 9 -26 19 -7 17 -17 -5 -39 -35 -35 -36 -46 -11 -86 10 -17 25 -23 34 -15 8 8 4 25 -9 38 -35 35 31 105 69 73 34 -28 38 -317 5 -317 -14 0 -19 30 -15 80 8 82 -28 123 -70 81 -32 -32 -68 -25 -68 14 1 154 -4 168 -50 153 -25 -8 -94 -15 -155 -16 -66 -1 -106 -10 -100 -22 6 -11 21 -19 35 -17 16 2 23 -15 19 -44 -8 -65 -27 -79 -64 -49 -49 40 -62 4 -15 -40 24 -22 56 -34 73 -28 27 10 72 -81 49 -100 -37 -32 -177 -24 -177 9 0 25 10 34 30 26 21 -8 30 2 30 33 0 33 -8 41 -33 32 -29 -11 -31 0 -21 93 7 58 18 197 26 309 8 113 22 200 32 194 10 -6 31 -1 47 13 39 33 89 9 89 -43 0 -35 -8 -40 -49 -30 -28 7 -55 2 -63 -11 -10 -16 -4 -20 19 -11 18 7 33 4 33 -7 0 -10 14 -19 32 -19 24 0 28 -13 18 -60 -10 -46 -6 -60 17 -60 17 0 33 -18 37 -41 3 -22 13 -40 21 -39 9 0 42 -13 74 -30 74 -38 83 -38 68 0 -7 20 1 30 23 30 29 0 30 5 10 30 -14 17 -44 30 -67 31 -39 0 -40 2 -8 21 19 11 35 42 35 69 0 28 12 49 27 49 15 0 37 23 50 51 30 65 29 76 -4 63 -15 -6 -38 -3 -52 6 -45 27 -1 60 81 60 l80 0 -12 -195z m270 115 c0 -67 -7 -80 -40 -80 -22 0 -40 -9 -40 -20 0 -11 14 -20 30 -20 47 0 37 -98 -14 -139 -38 -31 -41 -44 -23 -85 17 -37 16 -57 -5 -86 -44 -60 -36 -202 13 -237 50 -35 33 -47 -61 -45 -80 2 -88 56 -43 292 11 61 25 170 30 244 10 137 17 160 69 221 52 60 84 43 84 -45z m329 -117 c79 -193 111 -170 111 79 l0 98 75 0 75 0 -6 -230 c-6 -198 -11 -230 -39 -230 -30 0 -30 -4 -4 -29 21 -21 27 -64 22 -151 l-7 -122 -83 6 c-84 6 -108 41 -36 52 54 9 66 73 20 106 -20 15 -37 38 -37 52 0 14 -9 26 -20 26 -11 0 -20 17 -20 38 0 43 -45 67 -93 48 -23 -9 -29 -5 -19 11 8 12 28 23 45 23 19 0 28 15 23 45 -4 32 -17 43 -44 38 -21 -3 -43 2 -50 13 -19 29 -102 50 -102 25 0 -11 10 -21 22 -21 15 0 16 -8 3 -25 -43 -55 -58 -144 -34 -192 23 -44 26 -45 46 -10 17 31 20 27 19 -29 -2 -46 -10 -63 -28 -56 -46 18 -51 -24 -7 -55 70 -49 43 -102 -56 -109 -100 -7 -94 -41 -65 366 28 396 31 406 96 415 86 12 130 -29 193 -182z m774 144 c24 -31 21 -33 -40 -20 -63 12 -67 10 -56 -32 7 -25 13 -70 13 -100 0 -34 11 -55 28 -55 30 0 52 42 52 102 0 21 14 38 30 38 22 0 30 -23 30 -90 l0 -90 -80 0 c-76 0 -80 3 -80 61 0 70 -46 97 -103 61 -21 -13 -46 -19 -56 -13 -9 6 -23 -5 -30 -24 -7 -19 -5 -37 6 -41 12 -4 13 -30 1 -70 -61 -212 5 -382 118 -303 47 34 60 86 19 82 -30 -4 -35 9 -35 86 0 65 49 93 122 70 33 -10 40 -24 31 -67 -11 -58 15 -121 40 -95 9 8 13 47 10 86 -4 48 1 67 15 58 34 -21 25 -132 -17 -225 -43 -94 -139 -160 -178 -121 -17 17 -29 14 -49 -13 -35 -48 -154 -2 -207 81 -96 146 -11 537 137 626 84 52 239 56 279 8z m-1328 -202 c-5 -41 -8 -12 -8 65 -1 77 3 111 7 75 5 -35 5 -98 1 -140z m-184 -434 c32 -31 39 -91 11 -91 -9 0 -23 16 -30 35 -6 19 -17 46 -24 60 -15 34 8 32 43 -4z"/>
    <path d="M7704 1677 c5 -15 34 -30 65 -34 39 -4 53 2 47 20 -5 15 -34 30 -65 34 -39 4 -53 -2 -47 -20z"/>
    <path d="M364 1901 c-91 -23 -84 5 -109 -419 -25 -446 -42 -403 150 -385 277 27 385 165 385 496 0 295 -123 385 -426 308z m204 -173 c17 -6 37 -42 44 -80 7 -37 23 -68 35 -68 16 -1 16 -5 2 -15 -12 -8 -37 -58 -57 -110 -55 -147 -176 -214 -161 -90 6 51 24 259 28 339 1 7 17 17 36 22 19 5 37 10 38 12 2 1 18 -3 35 -10z"/>
    <path d="M3627 1882 c-168 -103 -162 -325 13 -447 133 -93 156 -128 112 -171 -29 -29 -39 -28 -122 12 -113 54 -103 55 -139 -15 -44 -84 -40 -93 49 -129 380 -152 634 214 299 429 -102 65 -130 112 -109 179 20 64 67 48 74 -25 6 -63 10 -65 104 -71 l97 -6 -10 105 c-16 172 -200 241 -368 139z"/>
    <path d="M1546 1886 c-61 -8 -64 -13 -73 -112 -17 -172 -53 -622 -53 -656 0 -43 405 -30 477 16 100 63 127 244 49 330 -30 34 -30 39 10 82 82 87 82 237 0 313 -43 41 -211 52 -410 27z m247 -198 c7 -17 -1 -45 -17 -61 -38 -38 -182 -73 -161 -40 7 13 15 32 16 43 2 11 4 31 6 44 6 47 139 59 156 14z m-20 -300 c15 -37 -45 -102 -103 -111 -63 -11 -68 97 -6 122 68 27 96 25 109 -11z"/>
    <path d="M2166 1886 c-60 -8 -64 -13 -75 -112 -11 -95 -51 -617 -51 -665 0 -25 414 -13 466 15 105 55 144 232 72 324 l-43 54 48 51 c36 38 47 73 47 147 0 185 -112 230 -464 186z m248 -199 c16 -42 -60 -107 -124 -107 -33 0 -45 10 -40 35 4 19 8 46 8 59 4 48 138 59 156 13z m-34 -287 c38 -24 8 -79 -61 -114 -58 -29 -79 -18 -79 46 0 32 15 55 45 67 58 24 60 24 95 1z"/>
  </g>
</svg>
